<?xml version="1.0" encoding="utf-8"?>
<!-- Generator: Adobe Illustrator 15.0.2, SVG Export Plug-In . SVG Version: 6.00 Build 0)  -->
<!DOCTYPE svg PUBLIC "-//W3C//DTD SVG 1.1//EN" "http://www.w3.org/Graphics/SVG/1.1/DTD/svg11.dtd">
<svg version="1.1"
	 id="Capa_1" sodipodi:docname="noun_project_6447.svg" inkscape:version="0.48.3.1 r9886" xmlns:inkscape="http://www.inkscape.org/namespaces/inkscape" xmlns:sodipodi="http://sodipodi.sourceforge.net/DTD/sodipodi-0.dtd" xmlns:rdf="http://www.w3.org/1999/02/22-rdf-syntax-ns#" xmlns:svg="http://www.w3.org/2000/svg" xmlns:cc="http://creativecommons.org/ns#" xmlns:dc="http://purl.org/dc/elements/1.1/"
	 xmlns="http://www.w3.org/2000/svg" xmlns:xlink="http://www.w3.org/1999/xlink" x="0px" y="0px" width="100px" height="100px"
	 viewBox="0 0 100 100" enable-background="new 0 0 100 100" xml:space="preserve">
<sodipodi:namedview  bordercolor="#666666" borderopacity="1" id="namedview238" inkscape:window-height="406" objecttolerance="10" pagecolor="#ffffff" gridtolerance="10" guidetolerance="10" inkscape:pageopacity="0" inkscape:pageshadow="2" inkscape:window-width="513" showgrid="false" inkscape:cy="50" inkscape:zoom="2.36" inkscape:cx="50" inkscape:window-x="0" inkscape:window-y="0" inkscape:window-maximized="0" inkscape:current-layer="Capa_1">
	</sodipodi:namedview>
<path fill="#666666" d="M77.92,68.372L57.546,48l20.372-20.372c2.588-2.587,2.586-6.781,0-9.367c-2.587-2.587-6.78-2.587-9.366,0
	L48.18,38.633L27.807,18.26c-2.586-2.586-6.78-2.586-9.367,0c-2.586,2.587-2.586,6.78,0,9.367L38.813,48L18.44,68.372
	c-2.586,2.589-2.586,6.782,0,9.368s6.78,2.586,9.367,0L48.18,57.368L68.552,77.74c2.586,2.586,6.779,2.586,9.368,0
	C80.506,75.151,80.506,70.958,77.92,68.372z"/>
</svg>
